<?xml version="1.0" encoding="us-ascii" standalone="no"?><svg xmlns="http://www.w3.org/2000/svg" xmlns:xlink="http://www.w3.org/1999/xlink" contentStyleType="text/css" height="795px" preserveAspectRatio="none" style="width:951px;height:795px;background:#FFFFFF;" version="1.1" viewBox="0 0 951 795" width="951px" zoomAndPan="magnify"><defs/><g><text fill="#000000" font-family="sans-serif" font-size="14" font-weight="bold" lengthAdjust="spacing" textLength="275" x="335.25" y="29.5332">GHL OAuth 2.0 Authorization Code Flow</text><text fill="#000000" font-family="sans-serif" font-size="14" font-weight="bold" lengthAdjust="spacing" textLength="5" x="382.75" y="47.1426">(</text><text fill="#000000" font-family="sans-serif" font-size="14" font-style="italic" font-weight="bold" lengthAdjust="spacing" textLength="170" x="387.75" y="47.1426">for public, approved apps</text><text fill="#000000" font-family="sans-serif" font-size="14" font-weight="bold" lengthAdjust="spacing" textLength="5" x="557.75" y="47.1426">)</text><rect fill="#B0C4DE" height="726.8438" style="stroke:#181818;stroke-width:0.5;" width="352.5" x="18" y="62.2188"/><text fill="#000000" font-family="sans-serif" font-size="13" font-style="italic" font-weight="bold" lengthAdjust="spacing" textLength="90" x="149.25" y="75.7139">User's Browser</text><rect fill="#B0C4DE" height="726.8438" style="stroke:#181818;stroke-width:0.5;" width="128" x="425.5" y="62.2188"/><text fill="#000000" font-family="sans-serif" font-size="13" font-style="italic" font-weight="bold" lengthAdjust="spacing" textLength="122" x="428.5" y="75.7139">Your Server or CDN</text><rect fill="#B0C4DE" height="726.8438" style="stroke:#181818;stroke-width:0.5;" width="263" x="682.5" y="62.2188"/><text fill="#000000" font-family="sans-serif" font-size="13" font-style="italic" font-weight="bold" lengthAdjust="spacing" textLength="86" x="771" y="75.7139">GHL's Servers</text><line style="stroke:#181818;stroke-width:0.5;stroke-dasharray:5.0,5.0;" x1="39" x2="39" y1="160.1797" y2="547.3984"/><line style="stroke:#A80036;stroke-width:1.0;stroke-dasharray:1.0,4.0;" x1="39" x2="39" y1="547.3984" y2="575.3984"/><line style="stroke:#181818;stroke-width:0.5;stroke-dasharray:5.0,5.0;" x1="39" x2="39" y1="575.3984" y2="609.75"/><line style="stroke:#A80036;stroke-width:1.0;stroke-dasharray:1.0,4.0;" x1="39" x2="39" y1="609.75" y2="637.75"/><line style="stroke:#181818;stroke-width:0.5;stroke-dasharray:5.0,5.0;" x1="39" x2="39" y1="637.75" y2="708.4531"/><line style="stroke:#181818;stroke-width:0.5;stroke-dasharray:5.0,5.0;" x1="314.5" x2="314.5" y1="160.1797" y2="547.3984"/><line style="stroke:#A80036;stroke-width:1.0;stroke-dasharray:1.0,4.0;" x1="314.5" x2="314.5" y1="547.3984" y2="575.3984"/><line style="stroke:#181818;stroke-width:0.5;stroke-dasharray:5.0,5.0;" x1="314.5" x2="314.5" y1="575.3984" y2="609.75"/><line style="stroke:#A80036;stroke-width:1.0;stroke-dasharray:1.0,4.0;" x1="314.5" x2="314.5" y1="609.75" y2="637.75"/><line style="stroke:#181818;stroke-width:0.5;stroke-dasharray:5.0,5.0;" x1="314.5" x2="314.5" y1="637.75" y2="708.4531"/><line style="stroke:#181818;stroke-width:0.5;stroke-dasharray:5.0,5.0;" x1="489.5" x2="489.5" y1="160.1797" y2="547.3984"/><line style="stroke:#A80036;stroke-width:1.0;stroke-dasharray:1.0,4.0;" x1="489.5" x2="489.5" y1="547.3984" y2="575.3984"/><line style="stroke:#181818;stroke-width:0.5;stroke-dasharray:5.0,5.0;" x1="489.5" x2="489.5" y1="575.3984" y2="609.75"/><line style="stroke:#A80036;stroke-width:1.0;stroke-dasharray:1.0,4.0;" x1="489.5" x2="489.5" y1="609.75" y2="637.75"/><line style="stroke:#181818;stroke-width:0.5;stroke-dasharray:5.0,5.0;" x1="489.5" x2="489.5" y1="637.75" y2="708.4531"/><line style="stroke:#181818;stroke-width:0.5;stroke-dasharray:5.0,5.0;" x1="752.5" x2="752.5" y1="160.1797" y2="547.3984"/><line style="stroke:#A80036;stroke-width:1.0;stroke-dasharray:1.0,4.0;" x1="752.5" x2="752.5" y1="547.3984" y2="575.3984"/><line style="stroke:#181818;stroke-width:0.5;stroke-dasharray:5.0,5.0;" x1="752.5" x2="752.5" y1="575.3984" y2="609.75"/><line style="stroke:#A80036;stroke-width:1.0;stroke-dasharray:1.0,4.0;" x1="752.5" x2="752.5" y1="609.75" y2="637.75"/><line style="stroke:#181818;stroke-width:0.5;stroke-dasharray:5.0,5.0;" x1="752.5" x2="752.5" y1="637.75" y2="708.4531"/><line style="stroke:#181818;stroke-width:0.5;stroke-dasharray:5.0,5.0;" x1="884.5" x2="884.5" y1="160.1797" y2="547.3984"/><line style="stroke:#A80036;stroke-width:1.0;stroke-dasharray:1.0,4.0;" x1="884.5" x2="884.5" y1="547.3984" y2="575.3984"/><line style="stroke:#181818;stroke-width:0.5;stroke-dasharray:5.0,5.0;" x1="884.5" x2="884.5" y1="575.3984" y2="609.75"/><line style="stroke:#A80036;stroke-width:1.0;stroke-dasharray:1.0,4.0;" x1="884.5" x2="884.5" y1="609.75" y2="637.75"/><line style="stroke:#181818;stroke-width:0.5;stroke-dasharray:5.0,5.0;" x1="884.5" x2="884.5" y1="637.75" y2="708.4531"/><text fill="#000000" font-family="sans-serif" font-size="14" lengthAdjust="spacing" textLength="29" x="22" y="157.1035">User</text><ellipse cx="39.5" cy="91.0703" fill="#E2E2F0" rx="8" ry="8" style="stroke:#181818;stroke-width:0.5;"/><path d="M39.5,99.0703 L39.5,126.0703 M26.5,107.0703 L52.5,107.0703 M39.5,126.0703 L26.5,141.0703 M39.5,126.0703 L52.5,141.0703 " fill="none" style="stroke:#181818;stroke-width:0.5;"/><text fill="#000000" font-family="sans-serif" font-size="14" lengthAdjust="spacing" textLength="29" x="22" y="721.9863">User</text><ellipse cx="39.5" cy="733.5625" fill="#E2E2F0" rx="8" ry="8" style="stroke:#181818;stroke-width:0.5;"/><path d="M39.5,741.5625 L39.5,768.5625 M26.5,749.5625 L52.5,749.5625 M39.5,768.5625 L26.5,783.5625 M39.5,768.5625 L52.5,783.5625 " fill="none" style="stroke:#181818;stroke-width:0.5;"/><rect fill="#E2E2F0" height="31.6094" rx="2.5" ry="2.5" style="stroke:#181818;stroke-width:0.5;" width="104" x="262.5" y="127.5703"/><text fill="#000000" font-family="sans-serif" font-size="14" lengthAdjust="spacing" textLength="90" x="269.5" y="149.1035">GHL Web App</text><rect fill="#E2E2F0" height="31.6094" rx="2.5" ry="2.5" style="stroke:#181818;stroke-width:0.5;" width="104" x="262.5" y="707.4531"/><text fill="#000000" font-family="sans-serif" font-size="14" lengthAdjust="spacing" textLength="90" x="269.5" y="728.9863">GHL Web App</text><rect fill="#E2E2F0" height="31.6094" rx="2.5" ry="2.5" style="stroke:#181818;stroke-width:0.5;" width="120" x="429.5" y="127.5703"/><text fill="#000000" font-family="sans-serif" font-size="14" lengthAdjust="spacing" textLength="106" x="436.5" y="149.1035">Marketplace App</text><rect fill="#E2E2F0" height="31.6094" rx="2.5" ry="2.5" style="stroke:#181818;stroke-width:0.5;" width="120" x="429.5" y="707.4531"/><text fill="#000000" font-family="sans-serif" font-size="14" lengthAdjust="spacing" textLength="106" x="436.5" y="728.9863">Marketplace App</text><rect fill="#E2E2F0" height="31.6094" rx="2.5" ry="2.5" style="stroke:#181818;stroke-width:0.5;" width="132" x="686.5" y="127.5703"/><text fill="#000000" font-family="sans-serif" font-size="14" lengthAdjust="spacing" textLength="118" x="693.5" y="149.1035">GHL OAuth Server</text><rect fill="#E2E2F0" height="31.6094" rx="2.5" ry="2.5" style="stroke:#181818;stroke-width:0.5;" width="132" x="686.5" y="707.4531"/><text fill="#000000" font-family="sans-serif" font-size="14" lengthAdjust="spacing" textLength="118" x="693.5" y="728.9863">GHL OAuth Server</text><rect fill="#E2E2F0" height="31.6094" rx="2.5" ry="2.5" style="stroke:#181818;stroke-width:0.5;" width="113" x="828.5" y="127.5703"/><text fill="#000000" font-family="sans-serif" font-size="14" lengthAdjust="spacing" textLength="99" x="835.5" y="149.1035">GHL API Server</text><rect fill="#E2E2F0" height="31.6094" rx="2.5" ry="2.5" style="stroke:#181818;stroke-width:0.5;" width="113" x="828.5" y="707.4531"/><text fill="#000000" font-family="sans-serif" font-size="14" lengthAdjust="spacing" textLength="99" x="835.5" y="728.9863">GHL API Server</text><polygon fill="#181818" points="302.5,188.5313,312.5,192.5313,302.5,196.5313,306.5,192.5313" style="stroke:#181818;stroke-width:1.0;"/><line style="stroke:#181818;stroke-width:1.0;" x1="39.5" x2="308.5" y1="192.5313" y2="192.5313"/><text fill="#000000" font-family="sans-serif" font-size="13" font-weight="bold" lengthAdjust="spacing" textLength="29" x="46.5" y="187.6748">[001]</text><text fill="#000000" font-family="sans-serif" font-size="13" font-style="italic" lengthAdjust="spacing" textLength="218" x="79.5" y="187.6748">login to GHL, go to Apps Marketplace</text><polygon fill="#181818" points="50.5,218.8828,40.5,222.8828,50.5,226.8828,46.5,222.8828" style="stroke:#181818;stroke-width:1.0;"/><line style="stroke:#181818;stroke-width:1.0;" x1="44.5" x2="313.5" y1="222.8828" y2="222.8828"/><text fill="#000000" font-family="sans-serif" font-size="13" font-weight="bold" lengthAdjust="spacing" textLength="29" x="56.5" y="218.0264">[002]</text><text fill="#000000" font-family="sans-serif" font-size="13" font-style="italic" lengthAdjust="spacing" textLength="155" x="89.5" y="218.0264">show list of approved Apps</text><polygon fill="#181818" points="302.5,249.2344,312.5,253.2344,302.5,257.2344,306.5,253.2344" style="stroke:#181818;stroke-width:1.0;"/><line style="stroke:#181818;stroke-width:1.0;" x1="39.5" x2="308.5" y1="253.2344" y2="253.2344"/><text fill="#000000" font-family="sans-serif" font-size="13" font-weight="bold" lengthAdjust="spacing" textLength="29" x="46.5" y="248.3779">[003]</text><text fill="#000000" font-family="sans-serif" font-size="13" font-style="italic" lengthAdjust="spacing" textLength="28" x="79.5" y="248.3779">click</text><text fill="#000000" font-family="sans-serif" font-size="13" font-style="italic" font-weight="bold" lengthAdjust="spacing" textLength="36" x="111.5" y="248.3779">Install</text><text fill="#000000" font-family="sans-serif" font-size="13" font-style="italic" lengthAdjust="spacing" textLength="115" x="151.5" y="248.3779">on App details page</text><polygon fill="#181818" points="50.5,279.5859,40.5,283.5859,50.5,287.5859,46.5,283.5859" style="stroke:#181818;stroke-width:1.0;"/><line style="stroke:#181818;stroke-width:1.0;" x1="44.5" x2="313.5" y1="283.5859" y2="283.5859"/><text fill="#000000" font-family="sans-serif" font-size="13" font-weight="bold" lengthAdjust="spacing" textLength="29" x="56.5" y="278.7295">[004]</text><text fill="#000000" font-family="sans-serif" font-size="13" font-style="italic" lengthAdjust="spacing" textLength="118" x="89.5" y="278.7295">request confirmation</text><polygon fill="#181818" points="302.5,309.9375,312.5,313.9375,302.5,317.9375,306.5,313.9375" style="stroke:#181818;stroke-width:1.0;"/><line style="stroke:#181818;stroke-width:1.0;" x1="39.5" x2="308.5" y1="313.9375" y2="313.9375"/><text fill="#000000" font-family="sans-serif" font-size="13" font-weight="bold" lengthAdjust="spacing" textLength="29" x="46.5" y="309.0811">[005]</text><text fill="#000000" font-family="sans-serif" font-size="13" font-style="italic" lengthAdjust="spacing" textLength="89" x="79.5" y="309.0811">confirm access</text><polygon fill="#181818" points="740.5,340.2891,750.5,344.2891,740.5,348.2891,744.5,344.2891" style="stroke:#181818;stroke-width:1.0;"/><line style="stroke:#181818;stroke-width:1.0;" x1="314.5" x2="746.5" y1="344.2891" y2="344.2891"/><text fill="#000000" font-family="sans-serif" font-size="13" font-weight="bold" lengthAdjust="spacing" textLength="29" x="321.5" y="339.4326">[006]</text><text fill="#000000" font-family="sans-serif" font-size="13" font-style="italic" font-weight="bold" lengthAdjust="spacing" textLength="178" x="354.5" y="339.4326">generate Authorization Code</text><polygon fill="#181818" points="325.5,370.6406,315.5,374.6406,325.5,378.6406,321.5,374.6406" style="stroke:#181818;stroke-width:1.0;"/><line style="stroke:#181818;stroke-width:1.0;" x1="319.5" x2="751.5" y1="374.6406" y2="374.6406"/><text fill="#000000" font-family="sans-serif" font-size="13" font-weight="bold" lengthAdjust="spacing" textLength="29" x="331.5" y="369.7842">[007]</text><text fill="#000000" font-family="sans-serif" font-size="13" font-style="italic" font-weight="bold" lengthAdjust="spacing" textLength="118" x="364.5" y="369.7842">authorization Code</text><polygon fill="#181818" points="477.5,400.9922,487.5,404.9922,477.5,408.9922,481.5,404.9922" style="stroke:#181818;stroke-width:1.0;"/><line style="stroke:#181818;stroke-width:1.0;" x1="314.5" x2="483.5" y1="404.9922" y2="404.9922"/><text fill="#000000" font-family="sans-serif" font-size="13" font-weight="bold" lengthAdjust="spacing" textLength="29" x="321.5" y="400.1357">[008]</text><text fill="#000000" font-family="sans-serif" font-size="13" font-style="italic" font-weight="bold" lengthAdjust="spacing" textLength="118" x="354.5" y="400.1357">authorization Code</text><polygon fill="#181818" points="740.5,431.3438,750.5,435.3438,740.5,439.3438,744.5,435.3438" style="stroke:#181818;stroke-width:1.0;"/><line style="stroke:#181818;stroke-width:1.0;" x1="489.5" x2="746.5" y1="435.3438" y2="435.3438"/><text fill="#000000" font-family="sans-serif" font-size="13" font-weight="bold" lengthAdjust="spacing" textLength="29" x="496.5" y="430.4873">[009]</text><text fill="#000000" font-family="sans-serif" font-size="13" font-style="italic" font-weight="bold" lengthAdjust="spacing" textLength="206" x="529.5" y="430.4873">exchange Code for Access Token</text><polygon fill="#181818" points="500.5,461.6953,490.5,465.6953,500.5,469.6953,496.5,465.6953" style="stroke:#181818;stroke-width:1.0;"/><line style="stroke:#181818;stroke-width:1.0;" x1="494.5" x2="751.5" y1="465.6953" y2="465.6953"/><text fill="#000000" font-family="sans-serif" font-size="13" font-weight="bold" lengthAdjust="spacing" textLength="29" x="506.5" y="460.8389">[010]</text><text fill="#000000" font-family="sans-serif" font-size="13" font-weight="bold" lengthAdjust="spacing" textLength="86" x="539.5" y="460.8389">Access Token</text><text fill="#000000" font-family="sans-serif" font-size="13" lengthAdjust="spacing" textLength="8" x="629.5" y="460.8389">+</text><text fill="#000000" font-family="sans-serif" font-size="13" font-weight="bold" lengthAdjust="spacing" textLength="91" x="641.5" y="460.8389">Refresh Token</text><line style="stroke:#181818;stroke-width:1.0;" x1="489.5" x2="531.5" y1="496.0469" y2="496.0469"/><line style="stroke:#181818;stroke-width:1.0;" x1="531.5" x2="531.5" y1="496.0469" y2="509.0469"/><line style="stroke:#181818;stroke-width:1.0;" x1="490.5" x2="531.5" y1="509.0469" y2="509.0469"/><polygon fill="#181818" points="500.5,505.0469,490.5,509.0469,500.5,513.0469,496.5,509.0469" style="stroke:#181818;stroke-width:1.0;"/><text fill="#000000" font-family="sans-serif" font-size="13" font-weight="bold" lengthAdjust="spacing" textLength="29" x="496.5" y="491.1904">[011]</text><text fill="#000000" font-family="sans-serif" font-size="13" font-style="italic" font-weight="bold" lengthAdjust="spacing" textLength="130" x="529.5" y="491.1904">save tokens for reuse</text><polygon fill="#181818" points="50.5,535.3984,40.5,539.3984,50.5,543.3984,46.5,539.3984" style="stroke:#181818;stroke-width:1.0;"/><line style="stroke:#181818;stroke-width:1.0;" x1="44.5" x2="488.5" y1="539.3984" y2="539.3984"/><text fill="#000000" font-family="sans-serif" font-size="13" font-weight="bold" lengthAdjust="spacing" textLength="29" x="56.5" y="534.542">[012]</text><text fill="#000000" font-family="sans-serif" font-size="13" font-style="italic" font-weight="bold" lengthAdjust="spacing" textLength="169" x="89.5" y="534.542">redirect to Thank You Page</text><rect fill="#FEFFDD" height="24" style="stroke:#181818;stroke-width:0.5;" width="914" x="5" y="580.3984"/><text fill="#000000" font-family="sans-serif" font-size="13" lengthAdjust="spacing" textLength="224" x="350.25" y="597.8936">potentially after some time has passed</text><polygon fill="#181818" points="873,656.1016,883,660.1016,873,664.1016,877,660.1016" style="stroke:#181818;stroke-width:1.0;"/><line style="stroke:#181818;stroke-width:1.0;" x1="489.5" x2="879" y1="660.1016" y2="660.1016"/><text fill="#000000" font-family="sans-serif" font-size="13" font-weight="bold" lengthAdjust="spacing" textLength="29" x="496.5" y="655.2451">[013]</text><text fill="#000000" font-family="sans-serif" font-size="13" lengthAdjust="spacing" textLength="80" x="529.5" y="655.2451">call API using</text><text fill="#000000" font-family="sans-serif" font-size="13" font-style="italic" font-weight="bold" lengthAdjust="spacing" textLength="86" x="613.5" y="655.2451">Access Token</text><polygon fill="#181818" points="500.5,686.4531,490.5,690.4531,500.5,694.4531,496.5,690.4531" style="stroke:#181818;stroke-width:1.0;"/><line style="stroke:#181818;stroke-width:1.0;" x1="494.5" x2="884" y1="690.4531" y2="690.4531"/><text fill="#000000" font-family="sans-serif" font-size="13" font-weight="bold" lengthAdjust="spacing" textLength="29" x="506.5" y="685.5967">[014]</text><text fill="#000000" font-family="sans-serif" font-size="13" font-style="italic" font-weight="bold" lengthAdjust="spacing" textLength="84" x="539.5" y="685.5967">API Response</text><!--SRC=[XLBHRjCm57ttLro51o1iTSKZcYPbHS2a0LEpgaB0W-lS9bPJszXEk_7rN3lfsgu3NYB7zznpplMvGOKMuUEd6_XQTA61jwCnn8DnwhS8ocYOc0hXGsksF_GhpfV6WUqMhP9d8AnrPeDLF7ZENpEsCFUGSJxpw5vwk79cIoVECtXne-ecb06nlMexP4868eeu41vcp0eNb5HMw01PT3F71HJMPh4yPwWh8Ev7WM-cSr2Ysr0_yKpUVtbEv8Zqit0h3BOL4X-99oV494t6UsR_Nyxzi_KTYRGeJq75xVKXP5hkXKKNZExM2veakrXSVX-FnpypDWCulmIOlmFEMrCh3S74bCwWDl584tWu68dps79nFhJuncoXLJw0MUvZAb9CHzoIWbn1dbzh7qJRvZbGueI32eDGhGShwgVa3dzrIDJIwALowxGbJsdx4WWfqKTDDa_LeepLFAzHenC1drcrF2VuFCdjqEAle2Wu-IU8JOw4yLusGjVORtLSvY9PX3kpGfqwYd97c-V7HNX3LrDSElJDxcxWtxdmOeEK3vLyOdVO-Tx8y883pc6b7CeGixmZHokWbOPRUkpUzMWqOinfGqyaf3FUCm1BVpeeYka1n3BGmdYp9ZL5dqR4gBp7AcrMR1n8UdzJcbzIPzh4pYjT9nidmq_BmsaYU8hU6ZqCyGS0]--></g></svg>