<?xml version="1.0" encoding="us-ascii" standalone="no"?><svg xmlns="http://www.w3.org/2000/svg" xmlns:xlink="http://www.w3.org/1999/xlink" contentStyleType="text/css" height="699px" preserveAspectRatio="none" style="width:704px;height:699px;background:#FFFFFF;" version="1.1" viewBox="0 0 704 699" width="704px" zoomAndPan="magnify"><defs/><g><text fill="#000000" font-family="sans-serif" font-size="14" font-weight="bold" lengthAdjust="spacing" textLength="275" x="211.75" y="29.5332">GHL OAuth 2.0 Authorization Code Flow</text><text fill="#000000" font-family="sans-serif" font-size="14" font-weight="bold" lengthAdjust="spacing" textLength="5" x="291.75" y="47.1426">(</text><text fill="#000000" font-family="sans-serif" font-size="14" font-style="italic" font-weight="bold" lengthAdjust="spacing" textLength="105" x="296.75" y="47.1426">for private apps</text><text fill="#000000" font-family="sans-serif" font-size="14" font-weight="bold" lengthAdjust="spacing" textLength="5" x="401.75" y="47.1426">)</text><rect fill="#B0C4DE" height="630.7891" style="stroke:#181818;stroke-width:0.5;" width="128" x="178.5" y="62.2188"/><text fill="#000000" font-family="sans-serif" font-size="13" font-style="italic" font-weight="bold" lengthAdjust="spacing" textLength="122" x="181.5" y="75.7139">Your Server or CDN</text><rect fill="#B0C4DE" height="630.7891" style="stroke:#181818;stroke-width:0.5;" width="263" x="435.5" y="62.2188"/><text fill="#000000" font-family="sans-serif" font-size="13" font-style="italic" font-weight="bold" lengthAdjust="spacing" textLength="86" x="524" y="75.7139">GHL's Servers</text><line style="stroke:#181818;stroke-width:0.5;stroke-dasharray:5.0,5.0;" x1="39" x2="39" y1="138.8281" y2="451.3438"/><line style="stroke:#A80036;stroke-width:1.0;stroke-dasharray:1.0,4.0;" x1="39" x2="39" y1="451.3438" y2="479.3438"/><line style="stroke:#181818;stroke-width:0.5;stroke-dasharray:5.0,5.0;" x1="39" x2="39" y1="479.3438" y2="513.6953"/><line style="stroke:#A80036;stroke-width:1.0;stroke-dasharray:1.0,4.0;" x1="39" x2="39" y1="513.6953" y2="541.6953"/><line style="stroke:#181818;stroke-width:0.5;stroke-dasharray:5.0,5.0;" x1="39" x2="39" y1="541.6953" y2="612.3984"/><line style="stroke:#181818;stroke-width:0.5;stroke-dasharray:5.0,5.0;" x1="242.5" x2="242.5" y1="138.8281" y2="451.3438"/><line style="stroke:#A80036;stroke-width:1.0;stroke-dasharray:1.0,4.0;" x1="242.5" x2="242.5" y1="451.3438" y2="479.3438"/><line style="stroke:#181818;stroke-width:0.5;stroke-dasharray:5.0,5.0;" x1="242.5" x2="242.5" y1="479.3438" y2="513.6953"/><line style="stroke:#A80036;stroke-width:1.0;stroke-dasharray:1.0,4.0;" x1="242.5" x2="242.5" y1="513.6953" y2="541.6953"/><line style="stroke:#181818;stroke-width:0.5;stroke-dasharray:5.0,5.0;" x1="242.5" x2="242.5" y1="541.6953" y2="612.3984"/><line style="stroke:#181818;stroke-width:0.5;stroke-dasharray:5.0,5.0;" x1="505.5" x2="505.5" y1="138.8281" y2="451.3438"/><line style="stroke:#A80036;stroke-width:1.0;stroke-dasharray:1.0,4.0;" x1="505.5" x2="505.5" y1="451.3438" y2="479.3438"/><line style="stroke:#181818;stroke-width:0.5;stroke-dasharray:5.0,5.0;" x1="505.5" x2="505.5" y1="479.3438" y2="513.6953"/><line style="stroke:#A80036;stroke-width:1.0;stroke-dasharray:1.0,4.0;" x1="505.5" x2="505.5" y1="513.6953" y2="541.6953"/><line style="stroke:#181818;stroke-width:0.5;stroke-dasharray:5.0,5.0;" x1="505.5" x2="505.5" y1="541.6953" y2="612.3984"/><line style="stroke:#181818;stroke-width:0.5;stroke-dasharray:5.0,5.0;" x1="637.5" x2="637.5" y1="138.8281" y2="451.3438"/><line style="stroke:#A80036;stroke-width:1.0;stroke-dasharray:1.0,4.0;" x1="637.5" x2="637.5" y1="451.3438" y2="479.3438"/><line style="stroke:#181818;stroke-width:0.5;stroke-dasharray:5.0,5.0;" x1="637.5" x2="637.5" y1="479.3438" y2="513.6953"/><line style="stroke:#A80036;stroke-width:1.0;stroke-dasharray:1.0,4.0;" x1="637.5" x2="637.5" y1="513.6953" y2="541.6953"/><line style="stroke:#181818;stroke-width:0.5;stroke-dasharray:5.0,5.0;" x1="637.5" x2="637.5" y1="541.6953" y2="612.3984"/><text fill="#000000" font-family="sans-serif" font-size="14" lengthAdjust="spacing" textLength="29" x="22" y="135.752">User</text><ellipse cx="39.5" cy="69.7188" fill="#E2E2F0" rx="8" ry="8" style="stroke:#181818;stroke-width:0.5;"/><path d="M39.5,77.7188 L39.5,104.7188 M26.5,85.7188 L52.5,85.7188 M39.5,104.7188 L26.5,119.7188 M39.5,104.7188 L52.5,119.7188 " fill="none" style="stroke:#181818;stroke-width:0.5;"/><text fill="#000000" font-family="sans-serif" font-size="14" lengthAdjust="spacing" textLength="29" x="22" y="625.9316">User</text><ellipse cx="39.5" cy="637.5078" fill="#E2E2F0" rx="8" ry="8" style="stroke:#181818;stroke-width:0.5;"/><path d="M39.5,645.5078 L39.5,672.5078 M26.5,653.5078 L52.5,653.5078 M39.5,672.5078 L26.5,687.5078 M39.5,672.5078 L52.5,687.5078 " fill="none" style="stroke:#181818;stroke-width:0.5;"/><rect fill="#E2E2F0" height="31.6094" rx="2.5" ry="2.5" style="stroke:#181818;stroke-width:0.5;" width="120" x="182.5" y="106.2188"/><text fill="#000000" font-family="sans-serif" font-size="14" lengthAdjust="spacing" textLength="106" x="189.5" y="127.752">Marketplace App</text><rect fill="#E2E2F0" height="31.6094" rx="2.5" ry="2.5" style="stroke:#181818;stroke-width:0.5;" width="120" x="182.5" y="611.3984"/><text fill="#000000" font-family="sans-serif" font-size="14" lengthAdjust="spacing" textLength="106" x="189.5" y="632.9316">Marketplace App</text><rect fill="#E2E2F0" height="31.6094" rx="2.5" ry="2.5" style="stroke:#181818;stroke-width:0.5;" width="132" x="439.5" y="106.2188"/><text fill="#000000" font-family="sans-serif" font-size="14" lengthAdjust="spacing" textLength="118" x="446.5" y="127.752">GHL OAuth Server</text><rect fill="#E2E2F0" height="31.6094" rx="2.5" ry="2.5" style="stroke:#181818;stroke-width:0.5;" width="132" x="439.5" y="611.3984"/><text fill="#000000" font-family="sans-serif" font-size="14" lengthAdjust="spacing" textLength="118" x="446.5" y="632.9316">GHL OAuth Server</text><rect fill="#E2E2F0" height="31.6094" rx="2.5" ry="2.5" style="stroke:#181818;stroke-width:0.5;" width="113" x="581.5" y="106.2188"/><text fill="#000000" font-family="sans-serif" font-size="14" lengthAdjust="spacing" textLength="99" x="588.5" y="127.752">GHL API Server</text><rect fill="#E2E2F0" height="31.6094" rx="2.5" ry="2.5" style="stroke:#181818;stroke-width:0.5;" width="113" x="581.5" y="611.3984"/><text fill="#000000" font-family="sans-serif" font-size="14" lengthAdjust="spacing" textLength="99" x="588.5" y="632.9316">GHL API Server</text><polygon fill="#181818" points="230.5,167.1797,240.5,171.1797,230.5,175.1797,234.5,171.1797" style="stroke:#181818;stroke-width:1.0;"/><line style="stroke:#181818;stroke-width:1.0;" x1="39.5" x2="236.5" y1="171.1797" y2="171.1797"/><text fill="#000000" font-family="sans-serif" font-size="13" font-weight="bold" lengthAdjust="spacing" textLength="29" x="46.5" y="166.3232">[001]</text><text fill="#000000" font-family="sans-serif" font-size="13" font-style="italic" font-weight="bold" lengthAdjust="spacing" textLength="146" x="79.5" y="166.3232">Install Marketplace App</text><polygon fill="#181818" points="50.5,197.5313,40.5,201.5313,50.5,205.5313,46.5,201.5313" style="stroke:#181818;stroke-width:1.0;"/><line style="stroke:#181818;stroke-width:1.0;" x1="44.5" x2="241.5" y1="201.5313" y2="201.5313"/><text fill="#000000" font-family="sans-serif" font-size="13" font-weight="bold" lengthAdjust="spacing" textLength="29" x="56.5" y="196.6748">[002]</text><text fill="#000000" font-family="sans-serif" font-size="13" lengthAdjust="spacing" textLength="47" x="89.5" y="196.6748">redirect:</text><text fill="#000000" font-family="sans-serif" font-size="13" font-style="italic" font-weight="bold" lengthAdjust="spacing" textLength="91" x="140.5" y="196.6748">Authorize URL</text><polygon fill="#181818" points="493.5,227.8828,503.5,231.8828,493.5,235.8828,497.5,231.8828" style="stroke:#181818;stroke-width:1.0;"/><line style="stroke:#181818;stroke-width:1.0;" x1="39.5" x2="499.5" y1="231.8828" y2="231.8828"/><text fill="#000000" font-family="sans-serif" font-size="13" font-weight="bold" lengthAdjust="spacing" textLength="29" x="46.5" y="227.0264">[003]</text><text fill="#000000" font-family="sans-serif" font-size="13" font-style="italic" font-weight="bold" lengthAdjust="spacing" textLength="79" x="79.5" y="227.0264">login to GHL</text><text fill="#000000" font-family="sans-serif" font-size="13" font-style="italic" lengthAdjust="spacing" textLength="88" x="162.5" y="227.0264">(only if needed)</text><polygon fill="#181818" points="493.5,274.5859,503.5,278.5859,493.5,282.5859,497.5,278.5859" style="stroke:#181818;stroke-width:1.0;"/><line style="stroke:#181818;stroke-width:1.0;" x1="39.5" x2="499.5" y1="278.5859" y2="278.5859"/><text fill="#000000" font-family="sans-serif" font-size="13" font-weight="bold" lengthAdjust="spacing" textLength="29" x="46.5" y="265.5537">[004]</text><text fill="#000000" font-family="sans-serif" font-size="13" font-style="italic" lengthAdjust="spacing" textLength="35" x="79.5" y="257.3779">select</text><text fill="#000000" font-family="sans-serif" font-size="13" font-style="italic" font-weight="bold" lengthAdjust="spacing" textLength="54" x="118.5" y="257.3779">Location</text><text fill="#000000" font-family="sans-serif" font-size="13" font-style="italic" lengthAdjust="spacing" textLength="36" x="176.5" y="257.3779">and/or</text><text fill="#000000" font-family="sans-serif" font-size="13" font-style="italic" font-weight="bold" lengthAdjust="spacing" textLength="47" x="216.5" y="257.3779">Agency</text><text fill="#000000" font-family="sans-serif" font-size="13" font-style="italic" lengthAdjust="spacing" textLength="4" x="263.5" y="257.3779">,</text><text fill="#000000" font-family="sans-serif" font-size="13" font-style="italic" lengthAdjust="spacing" textLength="91" x="79.5" y="273.7295">approve access</text><polygon fill="#181818" points="50.5,304.9375,40.5,308.9375,50.5,312.9375,46.5,308.9375" style="stroke:#181818;stroke-width:1.0;"/><line style="stroke:#181818;stroke-width:1.0;" x1="44.5" x2="504.5" y1="308.9375" y2="308.9375"/><text fill="#000000" font-family="sans-serif" font-size="13" font-weight="bold" lengthAdjust="spacing" textLength="29" x="56.5" y="304.0811">[005]</text><text fill="#000000" font-family="sans-serif" font-size="13" font-style="italic" font-weight="bold" lengthAdjust="spacing" textLength="118" x="89.5" y="304.0811">authorization Code</text><polygon fill="#181818" points="230.5,335.2891,240.5,339.2891,230.5,343.2891,234.5,339.2891" style="stroke:#181818;stroke-width:1.0;"/><line style="stroke:#181818;stroke-width:1.0;" x1="39.5" x2="236.5" y1="339.2891" y2="339.2891"/><text fill="#000000" font-family="sans-serif" font-size="13" font-weight="bold" lengthAdjust="spacing" textLength="29" x="46.5" y="334.4326">[006]</text><text fill="#000000" font-family="sans-serif" font-size="13" font-style="italic" font-weight="bold" lengthAdjust="spacing" textLength="118" x="79.5" y="334.4326">authorization Code</text><polygon fill="#181818" points="493.5,365.6406,503.5,369.6406,493.5,373.6406,497.5,369.6406" style="stroke:#181818;stroke-width:1.0;"/><line style="stroke:#181818;stroke-width:1.0;" x1="242.5" x2="499.5" y1="369.6406" y2="369.6406"/><text fill="#000000" font-family="sans-serif" font-size="13" font-weight="bold" lengthAdjust="spacing" textLength="29" x="249.5" y="364.7842">[007]</text><text fill="#000000" font-family="sans-serif" font-size="13" font-style="italic" font-weight="bold" lengthAdjust="spacing" textLength="206" x="282.5" y="364.7842">exchange Code for Access Token</text><polygon fill="#181818" points="253.5,395.9922,243.5,399.9922,253.5,403.9922,249.5,399.9922" style="stroke:#181818;stroke-width:1.0;"/><line style="stroke:#181818;stroke-width:1.0;" x1="247.5" x2="504.5" y1="399.9922" y2="399.9922"/><text fill="#000000" font-family="sans-serif" font-size="13" font-weight="bold" lengthAdjust="spacing" textLength="29" x="259.5" y="395.1357">[008]</text><text fill="#000000" font-family="sans-serif" font-size="13" font-weight="bold" lengthAdjust="spacing" textLength="86" x="292.5" y="395.1357">Access Token</text><text fill="#000000" font-family="sans-serif" font-size="13" lengthAdjust="spacing" textLength="8" x="382.5" y="395.1357">+</text><text fill="#000000" font-family="sans-serif" font-size="13" font-weight="bold" lengthAdjust="spacing" textLength="91" x="394.5" y="395.1357">Refresh Token</text><line style="stroke:#181818;stroke-width:1.0;" x1="242.5" x2="284.5" y1="430.3438" y2="430.3438"/><line style="stroke:#181818;stroke-width:1.0;" x1="284.5" x2="284.5" y1="430.3438" y2="443.3438"/><line style="stroke:#181818;stroke-width:1.0;" x1="243.5" x2="284.5" y1="443.3438" y2="443.3438"/><polygon fill="#181818" points="253.5,439.3438,243.5,443.3438,253.5,447.3438,249.5,443.3438" style="stroke:#181818;stroke-width:1.0;"/><text fill="#000000" font-family="sans-serif" font-size="13" font-weight="bold" lengthAdjust="spacing" textLength="29" x="249.5" y="425.4873">[009]</text><text fill="#000000" font-family="sans-serif" font-size="13" font-style="italic" font-weight="bold" lengthAdjust="spacing" textLength="130" x="282.5" y="425.4873">save tokens for reuse</text><rect fill="#FEFFDD" height="24" style="stroke:#181818;stroke-width:0.5;" width="667" x="5" y="484.3438"/><text fill="#000000" font-family="sans-serif" font-size="13" lengthAdjust="spacing" textLength="224" x="226.75" y="501.8389">potentially after some time has passed</text><polygon fill="#181818" points="626,560.0469,636,564.0469,626,568.0469,630,564.0469" style="stroke:#181818;stroke-width:1.0;"/><line style="stroke:#181818;stroke-width:1.0;" x1="242.5" x2="632" y1="564.0469" y2="564.0469"/><text fill="#000000" font-family="sans-serif" font-size="13" font-weight="bold" lengthAdjust="spacing" textLength="29" x="249.5" y="559.1904">[010]</text><text fill="#000000" font-family="sans-serif" font-size="13" lengthAdjust="spacing" textLength="80" x="282.5" y="559.1904">call API using</text><text fill="#000000" font-family="sans-serif" font-size="13" font-style="italic" font-weight="bold" lengthAdjust="spacing" textLength="86" x="366.5" y="559.1904">Access Token</text><polygon fill="#181818" points="253.5,590.3984,243.5,594.3984,253.5,598.3984,249.5,594.3984" style="stroke:#181818;stroke-width:1.0;"/><line style="stroke:#181818;stroke-width:1.0;" x1="247.5" x2="637" y1="594.3984" y2="594.3984"/><text fill="#000000" font-family="sans-serif" font-size="13" font-weight="bold" lengthAdjust="spacing" textLength="29" x="259.5" y="589.542">[011]</text><text fill="#000000" font-family="sans-serif" font-size="13" font-style="italic" font-weight="bold" lengthAdjust="spacing" textLength="84" x="292.5" y="589.542">API Response</text><!--SRC=[XLBBRjGm5DtxAwx2WjR0UCIoGfL2451fU2WX2qHPU9mx6QkkRTdEqE7hkSw3JbiXDgECVUvv-Doaaq7uy743NyeXxU7rQWtvmmNzMoRjB5IkGtXltAzhUoR4pWNmGHzaGf3UHo7E6MDI9Jfl8mQG4Lh6jkuE2Y6-ko50W-505mIetdqMee1d6ztlKvCGpLip8FCo9AsqbpP1yKc66qpUI8LGUbzamegXxO0u_nAJuUTnPex_vRoFDqsCf6Np55H-lJg5rCszi1oIiyFjbf8KRxQNFzRhzS-2jG2lBW6g2n22yoiRapG67cNWN0XMJSZs0W9sEg1Aqypos0XjlHcHCsdPJ03ZUcqXkLmIvt3ch3c2te55xB0xfu5JV4H3rC3vngcnFngHjXFq-gJLerL7pbyASMs5eFw2Er2FIc6CMRbi5fDPMJxPWz7Vmyp_0Crvbn1uf_RIzZXjKrwYSXI5R-u6xJWnQnCj6Nrm2I_egCPTmBXVpfRtd5r4IJbIleeZUy0XpaPMgnLZmRgyi2gu61c0ftysQUhg27ANgDFeReb0qy-UYlSoHkp6ylFWJ399rXH9vPRpiWnHstxgyN6UkZarcC4rHk_ixEiF]--></g></svg>