<?xml version="1.0" encoding="us-ascii" standalone="no"?>
<svg xmlns="http://www.w3.org/2000/svg" xmlns:xlink="http://www.w3.org/1999/xlink"
    contentStyleType="text/css" height="501px" preserveAspectRatio="none"
    style="width:997px;height:501px;background:#FFFFFF;" version="1.1" viewBox="0 0 997 501"
    width="997px" zoomAndPan="magnify">
    <defs />
    <g>
        <line style="stroke:#181818;stroke-width:0.5;" x1="22" x2="22" y1="82.6094" y2="419.125" />
        <line style="stroke:#181818;stroke-width:0.5;" x1="283.5" x2="283.5" y1="82.6094"
            y2="419.125" />
        <line style="stroke:#181818;stroke-width:0.5;" x1="506.5" x2="506.5" y1="82.6094"
            y2="419.125" />
        <line style="stroke:#181818;stroke-width:0.5;" x1="640.5" x2="640.5" y1="82.6094"
            y2="419.125" />
        <line style="stroke:#181818;stroke-width:0.5;" x1="762.5" x2="762.5" y1="82.6094"
            y2="419.125" />
        <text fill="#000000" font-family="sans-serif" font-size="14" lengthAdjust="spacing"
            textLength="29" x="5" y="79.5332">User</text>
        <ellipse cx="22.5" cy="13.5" fill="#E2E2F0" rx="8" ry="8"
            style="stroke:#181818;stroke-width:0.5;" />
        <path
            d="M22.5,21.5 L22.5,48.5 M9.5,29.5 L35.5,29.5 M22.5,48.5 L9.5,63.5 M22.5,48.5 L35.5,63.5 "
            fill="none" style="stroke:#181818;stroke-width:0.5;" />
        <text fill="#000000" font-family="sans-serif" font-size="14" lengthAdjust="spacing"
            textLength="29" x="5" y="432.6582">User</text>
        <ellipse cx="22.5" cy="444.2344" fill="#E2E2F0" rx="8" ry="8"
            style="stroke:#181818;stroke-width:0.5;" />
        <path
            d="M22.5,452.2344 L22.5,479.2344 M9.5,460.2344 L35.5,460.2344 M22.5,479.2344 L9.5,494.2344 M22.5,479.2344 L35.5,494.2344 "
            fill="none" style="stroke:#181818;stroke-width:0.5;" />
        <rect fill="#E2E2F0" height="31.6094" rx="2.5" ry="2.5"
            style="stroke:#181818;stroke-width:0.5;" width="42" x="262.5" y="50" />
        <text fill="#000000" font-family="sans-serif" font-size="14" lengthAdjust="spacing"
            textLength="28" x="269.5" y="71.5332">GHL</text>
        <rect fill="#E2E2F0" height="31.6094" rx="2.5" ry="2.5"
            style="stroke:#181818;stroke-width:0.5;" width="42" x="262.5" y="418.125" />
        <text fill="#000000" font-family="sans-serif" font-size="14" lengthAdjust="spacing"
            textLength="28" x="269.5" y="439.6582">GHL</text>
        <rect fill="#E2E2F0" height="31.6094" rx="2.5" ry="2.5"
            style="stroke:#181818;stroke-width:0.5;" width="160" x="426.5" y="50" />
        <text fill="#000000" font-family="sans-serif" font-size="14" lengthAdjust="spacing"
            textLength="146" x="433.5" y="71.5332">GHL App Custom Page</text>
        <rect fill="#E2E2F0" height="31.6094" rx="2.5" ry="2.5"
            style="stroke:#181818;stroke-width:0.5;" width="160" x="426.5" y="418.125" />
        <text fill="#000000" font-family="sans-serif" font-size="14" lengthAdjust="spacing"
            textLength="146" x="433.5" y="439.6582">GHL App Custom Page</text>
        <rect fill="#E2E2F0" height="31.6094" rx="2.5" ry="2.5"
            style="stroke:#181818;stroke-width:0.5;" width="88" x="596.5" y="50" />
        <text fill="#000000" font-family="sans-serif" font-size="14" lengthAdjust="spacing"
            textLength="74" x="603.5" y="71.5332">GHL Server</text>
        <rect fill="#E2E2F0" height="31.6094" rx="2.5" ry="2.5"
            style="stroke:#181818;stroke-width:0.5;" width="88" x="596.5" y="418.125" />
        <text fill="#000000" font-family="sans-serif" font-size="14" lengthAdjust="spacing"
            textLength="74" x="603.5" y="439.6582">GHL Server</text>
        <rect fill="#E2E2F0" height="31.6094" rx="2.5" ry="2.5"
            style="stroke:#181818;stroke-width:0.5;" width="136" x="694.5" y="50" />
        <text fill="#000000" font-family="sans-serif" font-size="14" lengthAdjust="spacing"
            textLength="122" x="701.5" y="71.5332">GHL App Back-End</text>
        <rect fill="#E2E2F0" height="31.6094" rx="2.5" ry="2.5"
            style="stroke:#181818;stroke-width:0.5;" width="136" x="694.5" y="418.125" />
        <text fill="#000000" font-family="sans-serif" font-size="14" lengthAdjust="spacing"
            textLength="122" x="701.5" y="439.6582">GHL App Back-End</text>
        <polygon fill="#181818" points="271.5,110.9609,281.5,114.9609,271.5,118.9609,275.5,114.9609"
            style="stroke:#181818;stroke-width:1.0;" />
        <line style="stroke:#181818;stroke-width:1.0;" x1="22.5" x2="277.5" y1="114.9609"
            y2="114.9609" />
        <text fill="#000000" font-family="sans-serif" font-size="13" lengthAdjust="spacing"
            textLength="237" x="29.5" y="110.1045">navigates to GHL App under Marketplace</text>
        <polygon fill="#181818" points="494.5,141.3125,504.5,145.3125,494.5,149.3125,498.5,145.3125"
            style="stroke:#181818;stroke-width:1.0;" />
        <line style="stroke:#181818;stroke-width:1.0;" x1="283.5" x2="500.5" y1="145.3125"
            y2="145.3125" />
        <text fill="#000000" font-family="sans-serif" font-size="13" lengthAdjust="spacing"
            textLength="194" x="290.5" y="140.4561">loads App Custom Page in iframe</text>
        <polygon fill="#181818" points="294.5,171.6641,284.5,175.6641,294.5,179.6641,290.5,175.6641"
            style="stroke:#181818;stroke-width:1.0;" />
        <line style="stroke:#181818;stroke-width:1.0;" x1="288.5" x2="505.5" y1="175.6641"
            y2="175.6641" />
        <text fill="#000000" font-family="sans-serif" font-size="13" lengthAdjust="spacing"
            textLength="155" x="300.5" y="170.8076">requests SSO session info</text>
        <polygon fill="#181818" points="628.5,202.0156,638.5,206.0156,628.5,210.0156,632.5,206.0156"
            style="stroke:#181818;stroke-width:1.0;" />
        <line style="stroke:#181818;stroke-width:1.0;" x1="283.5" x2="634.5" y1="206.0156"
            y2="206.0156" />
        <text fill="#000000" font-family="sans-serif" font-size="13" lengthAdjust="spacing"
            textLength="200" x="290.5" y="201.1592">requests SSO session info for App</text>
        <polygon fill="#181818" points="294.5,232.3672,284.5,236.3672,294.5,240.3672,290.5,236.3672"
            style="stroke:#181818;stroke-width:1.0;" />
        <line style="stroke:#181818;stroke-width:1.0;" x1="288.5" x2="639.5" y1="236.3672"
            y2="236.3672" />
        <text fill="#000000" font-family="sans-serif" font-size="13" lengthAdjust="spacing"
            textLength="199" x="300.5" y="231.5107">returns ecrypted SSO session info</text>
        <polygon fill="#181818" points="494.5,262.7188,504.5,266.7188,494.5,270.7188,498.5,266.7188"
            style="stroke:#181818;stroke-width:1.0;" />
        <line style="stroke:#181818;stroke-width:1.0;" x1="283.5" x2="500.5" y1="266.7188"
            y2="266.7188" />
        <text fill="#000000" font-family="sans-serif" font-size="13" lengthAdjust="spacing"
            textLength="199" x="290.5" y="261.8623">returns ecrypted SSO session info</text>
        <polygon fill="#181818" points="750.5,293.0703,760.5,297.0703,750.5,301.0703,754.5,297.0703"
            style="stroke:#181818;stroke-width:1.0;" />
        <line style="stroke:#181818;stroke-width:1.0;" x1="506.5" x2="756.5" y1="297.0703"
            y2="297.0703" />
        <text fill="#000000" font-family="sans-serif" font-size="13" lengthAdjust="spacing"
            textLength="108" x="513.5" y="292.2139">sends session info</text>
        <line style="stroke:#181818;stroke-width:1.0;" x1="762.5" x2="804.5" y1="327.4219"
            y2="327.4219" />
        <line style="stroke:#181818;stroke-width:1.0;" x1="804.5" x2="804.5" y1="327.4219"
            y2="340.4219" />
        <line style="stroke:#181818;stroke-width:1.0;" x1="763.5" x2="804.5" y1="340.4219"
            y2="340.4219" />
        <polygon fill="#181818" points="773.5,336.4219,763.5,340.4219,773.5,344.4219,769.5,340.4219"
            style="stroke:#181818;stroke-width:1.0;" />
        <text fill="#000000" font-family="sans-serif" font-size="13" lengthAdjust="spacing"
            textLength="221" x="769.5" y="322.5654">decrypts session info with SSO Token</text>
        <polygon fill="#181818" points="517.5,366.7734,507.5,370.7734,517.5,374.7734,513.5,370.7734"
            style="stroke:#181818;stroke-width:1.0;" />
        <line style="stroke:#181818;stroke-width:1.0;" x1="511.5" x2="761.5" y1="370.7734"
            y2="370.7734" />
        <text fill="#000000" font-family="sans-serif" font-size="13" lengthAdjust="spacing"
            textLength="206" x="523.5" y="365.917">returns decrypted SSO session info</text>
        <polygon fill="#181818" points="33.5,397.125,23.5,401.125,33.5,405.125,29.5,401.125"
            style="stroke:#181818;stroke-width:1.0;" />
        <line style="stroke:#181818;stroke-width:1.0;" x1="27.5" x2="505.5" y1="401.125"
            y2="401.125" />
        <text fill="#000000" font-family="sans-serif" font-size="13" lengthAdjust="spacing"
            textLength="256" x="39.5" y="396.2686">shows user/location/agency-specific content</text><!--SRC=[XP91JyCm38Nl-HNMxjFk79008JY0G2hyW92udTNE2R6xQVyUjrqdne2TKkbzx_d5ZRJ4sHU_WOvgx8Ynqk8LcprmajHHTCu7JGNU1GjuWTvEPnQbGDcpmkBXyManACswEnFW9cUuwqNJ1bvzWoEumuzpiCAonJBgCdx-ddNhGxkyvpY2FfDpGo5ONW_ZuGhORwcn2mXeWjdKSpJcsPSMDNS-e1jWyrWJytJ9H_dP58Y1QjiCke4w3YZusQEeG5MzM5CHIWPodURCgVr_9DIsJnld3kYtREqB2s0e-wmO_vmnzRwC7vhRdWmNv2Yd-Y0SzJZbd2Am8rsFmM-fHPuTfmNYnGRZJx8AwxIRdj2gIy6hOIlRDOVzKZ86gYb0IAp8whu0]-->
    </g>
</svg>