<svg width="210" height="76" viewBox="0 0 210 76" xmlns="http://www.w3.org/2000/svg"
    xmlns:xlink="http://www.w3.org/1999/xlink">
    <g transform="translate(0 0)">
        <rect width="188" height="36" rx="4" transform="translate(0 0)" fill="#70a22a"
            stroke="#70a22a" stroke-width="1"></rect>
        <text transform="translate(31 23)" fill="white" font-size="14" font-weight="bold" font-family="sans-serif">
            <tspan x="0" y="0">USE THIS TEMPLATE</tspan>
        </text>
    </g>
    <g transform="translate(6 6)">
        <rect width="24" height="24" fill="#ffffff" opacity="0"></rect>
        <g transform="matrix(0.75 0 0 0.75 12 12)">
            <path
                style="stroke: none; stroke-width: 1; stroke-dasharray: none; stroke-linecap: butt; stroke-dashoffset: 0; stroke-linejoin: miter; stroke-miterlimit: 4; fill:#ffffff; fill-rule: nonzero; opacity: 1;"
                transform=" translate(-15, -14.82)"
                d="M 15 3 C 8.373 3 3 8.373 3 15 C 3 20.623 6.872 25.328 12.092 26.630000000000003 C 12.036 26.468 12 26.28 12 26.047 L 12 23.996000000000002 C 11.513 23.996000000000002 10.697 23.996000000000002 10.492 23.996000000000002 C 9.671000000000001 23.996000000000002 8.941 23.643 8.587000000000002 22.987000000000002 C 8.194 22.258000000000003 8.126000000000001 21.143 7.152000000000001 20.461000000000002 C 6.863000000000001 20.234 7.083000000000001 19.975 7.416000000000001 20.01 C 8.031 20.184 8.541 20.606 9.021 21.232000000000003 C 9.499 21.859 9.724 22.001 10.617 22.001 C 11.05 22.001 11.698 21.976000000000003 12.308000000000002 21.880000000000003 C 12.636000000000001 21.047000000000004 13.203000000000001 20.28 13.896 19.918000000000003 C 9.9 19.507 7.993000000000001 17.519000000000002 7.993000000000001 14.820000000000004 C 7.993000000000001 13.658000000000005 8.488000000000001 12.534000000000004 9.329 11.587000000000003 C 9.053 10.647 8.706 8.73 9.435 8 C 11.233 8 12.32 9.166 12.581 9.481 C 13.477 9.174 14.461 9 15.495 9 C 16.531 9 17.519 9.174 18.416999999999998 9.483 C 18.675 9.17 19.763 8 21.565 8 C 22.297 8.731 21.946 10.656 21.667 11.594 C 22.503 12.539 22.995 13.66 22.995 14.82 C 22.995 17.517 21.091 19.504 17.101 19.917 C 18.199 20.49 19 22.1 19 23.313 L 19 26.046999999999997 C 19 26.150999999999996 18.977 26.225999999999996 18.965 26.314999999999998 C 23.641 24.676 27 20.236 27 15 C 27 8.373 21.627 3 15 3 z"
                stroke-linecap="round"></path>
        </g>
    </g>
</svg>